<?xml version="1.0" encoding="utf-8"?><svg width="185" height="12" fill="none" xmlns="http://www.w3.org/2000/svg" viewBox="0 0 185 12"><path d="M10.218 3.683c.975 0 1.745.283 2.311.849.575.565.863 1.404.863 2.515v4.462h-1.404v-4.3c0-.752-.176-1.317-.527-1.697-.341-.38-.834-.57-1.477-.57-.712 0-1.277.223-1.697.672-.42.439-.629 1.073-.629 1.901v3.994H6.254v-4.3c0-.752-.175-1.317-.526-1.697-.342-.38-.834-.57-1.478-.57-.712 0-1.277.223-1.697.672-.419.439-.628 1.073-.628 1.901v3.994H.52V3.756h1.346v1.156c.283-.4.653-.702 1.112-.907.458-.215.98-.322 1.565-.322.604 0 1.14.122 1.609.366.468.244.829.6 1.082 1.068a2.98 2.98 0 011.214-1.053 4.028 4.028 0 011.77-.38zM19.339 11.596c-.77 0-1.463-.17-2.077-.512a3.781 3.781 0 01-1.448-1.404c-.341-.604-.512-1.287-.512-2.048 0-.76.17-1.438.512-2.033a3.646 3.646 0 011.448-1.404c.614-.341 1.306-.512 2.077-.512.77 0 1.458.17 2.062.512.615.332 1.092.8 1.434 1.404.35.595.526 1.273.526 2.033 0 .761-.175 1.444-.526 2.048a3.676 3.676 0 01-1.434 1.404c-.604.342-1.292.512-2.062.512zm0-1.228c.497 0 .94-.113 1.33-.337.4-.234.713-.556.937-.965.224-.42.336-.897.336-1.434 0-.536-.112-1.009-.336-1.418a2.352 2.352 0 00-.936-.966 2.622 2.622 0 00-1.331-.336c-.497 0-.946.112-1.346.336-.39.225-.702.546-.936.966-.224.41-.336.882-.336 1.418 0 .537.112 1.015.336 1.434.234.41.546.731.936.965.4.224.849.337 1.346.337zM25.303.655h1.404V11.51h-1.404V.655zM36.395 7.676c0 .108-.01.249-.03.425h-6.29c.089.682.386 1.233.893 1.652.517.41 1.156.615 1.916.615.927 0 1.673-.312 2.238-.936l.775.906c-.35.41-.79.722-1.316.937-.517.214-1.097.321-1.74.321-.82 0-1.546-.165-2.18-.497a3.698 3.698 0 01-1.477-1.419c-.342-.604-.512-1.287-.512-2.048 0-.75.165-1.428.497-2.033a3.629 3.629 0 011.39-1.404c.594-.341 1.262-.512 2.003-.512.742 0 1.4.17 1.975.512.585.332 1.039.8 1.36 1.404.332.605.498 1.297.498 2.077zm-3.833-2.808c-.672 0-1.238.205-1.696.614-.449.41-.712.946-.79 1.61h4.973c-.078-.654-.346-1.186-.804-1.595-.449-.42-1.01-.629-1.683-.629zM41.723 11.596c-.79 0-1.496-.17-2.12-.512a3.781 3.781 0 01-1.449-1.404c-.35-.604-.526-1.287-.526-2.048 0-.76.175-1.438.526-2.033a3.646 3.646 0 011.448-1.404c.625-.341 1.332-.512 2.121-.512.702 0 1.327.142 1.873.424.555.283.984.693 1.287 1.229l-1.068.688a2.386 2.386 0 00-.907-.834 2.587 2.587 0 00-1.2-.278c-.506 0-.965.112-1.374.336-.4.225-.717.546-.951.966-.224.41-.336.882-.336 1.418 0 .547.112 1.03.336 1.449.234.41.551.726.95.95.41.224.869.337 1.376.337.438 0 .838-.093 1.2-.278.36-.186.662-.463.906-.834l1.068.673c-.303.536-.732.95-1.287 1.243-.546.283-1.17.424-1.873.424zM53.926 3.756v7.753h-1.33v-1.17c-.283.4-.659.711-1.127.935-.458.215-.96.322-1.507.322-1.033 0-1.847-.283-2.442-.848-.595-.575-.893-1.419-.893-2.53V3.756h1.405v4.3c0 .751.18 1.322.54 1.712.362.38.878.57 1.551.57.742 0 1.327-.224 1.756-.672.429-.449.643-1.083.643-1.902V3.756h1.404zM56.6.655h1.404V11.51H56.6V.655zM63.508 3.683c1.072 0 1.892.263 2.457.79.575.527.863 1.312.863 2.355v4.68h-1.331v-1.023c-.234.36-.57.638-1.01.833-.428.186-.94.278-1.535.278-.868 0-1.565-.21-2.092-.629-.517-.419-.775-.97-.775-1.652 0-.683.249-1.23.746-1.639.497-.419 1.287-.629 2.37-.629h2.223V6.77c0-.604-.176-1.067-.527-1.39-.35-.32-.868-.482-1.55-.482-.459 0-.907.078-1.346.234-.439.147-.81.346-1.111.6l-.586-1.053c.4-.322.878-.566 1.434-.732a5.844 5.844 0 011.77-.263zm-.322 6.83c.536 0 1-.116 1.39-.35.39-.244.672-.585.848-1.024V8.057h-2.165c-1.19 0-1.784.4-1.784 1.199 0 .39.15.697.453.921.302.225.722.337 1.258.337zM70.772 5.058c.244-.448.605-.79 1.083-1.024.477-.234 1.058-.35 1.74-.35v1.36a2.742 2.742 0 00-.322-.015c-.76 0-1.36.229-1.799.687-.429.449-.643 1.092-.643 1.931v3.862h-1.404V3.756h1.345v1.302zM82.733 11.596c-.79 0-1.497-.17-2.121-.512a3.781 3.781 0 01-1.448-1.404c-.351-.604-.527-1.287-.527-2.048 0-.76.176-1.438.527-2.033a3.646 3.646 0 011.448-1.404c.624-.341 1.331-.512 2.12-.512.703 0 1.327.142 1.873.424.556.283.985.693 1.287 1.229l-1.067.688a2.386 2.386 0 00-.907-.834 2.587 2.587 0 00-1.2-.278c-.507 0-.965.112-1.375.336-.4.225-.717.546-.95.966-.225.41-.337.882-.337 1.418 0 .547.112 1.03.337 1.449.233.41.55.726.95.95.41.224.868.337 1.375.337.439 0 .839-.093 1.2-.278.36-.186.663-.463.906-.834l1.068.673c-.302.536-.731.95-1.287 1.243-.546.283-1.17.424-1.872.424zM94.936 3.756v7.753h-1.331v-1.17c-.283.4-.658.711-1.127.935-.458.215-.96.322-1.506.322-1.034 0-1.848-.283-2.443-.848-.594-.575-.892-1.419-.892-2.53V3.756h1.404v4.3c0 .751.18 1.322.541 1.712.361.38.878.57 1.55.57.742 0 1.327-.224 1.756-.672.43-.449.644-1.083.644-1.902V3.756h1.404zM97.609 3.756h1.404v7.753H97.61V3.756zm.702-1.492a.961.961 0 01-.687-.263.875.875 0 01-.264-.643c0-.254.088-.469.264-.644a.934.934 0 01.687-.278c.273 0 .497.088.673.263a.808.808 0 01.278.63.917.917 0 01-.278.672.911.911 0 01-.673.263zM103.918 11.596a6.68 6.68 0 01-1.829-.248c-.585-.176-1.043-.395-1.375-.659l.585-1.111c.342.244.756.439 1.244.585.487.146.98.22 1.477.22 1.229 0 1.843-.352 1.843-1.054a.682.682 0 00-.249-.556 1.498 1.498 0 00-.629-.292 11 11 0 00-1.053-.22 10.676 10.676 0 01-1.536-.336 2.362 2.362 0 01-1.009-.644c-.283-.302-.424-.726-.424-1.272 0-.702.292-1.263.878-1.682.585-.43 1.37-.644 2.354-.644.517 0 1.034.064 1.551.19.517.127.941.298 1.272.512l-.599 1.112c-.634-.41-1.38-.614-2.238-.614-.595 0-1.048.097-1.36.292-.313.195-.469.454-.469.775 0 .254.088.454.264.6.175.146.39.254.643.322.264.068.629.146 1.097.234a10.61 10.61 0 011.507.35c.39.118.722.323.995.615.273.293.409.702.409 1.229 0 .702-.302 1.263-.907 1.682-.595.41-1.409.614-2.442.614zM109.022 3.756h1.404v7.753h-1.404V3.756zm.702-1.492a.96.96 0 01-.687-.263.874.874 0 01-.264-.643c0-.254.088-.469.264-.644a.932.932 0 01.687-.278c.273 0 .497.088.673.263a.808.808 0 01.278.63.918.918 0 01-.278.672.912.912 0 01-.673.263zM117.247 3.683c.985 0 1.765.288 2.34.863.585.566.878 1.4.878 2.501v4.462h-1.405v-4.3c0-.752-.18-1.317-.541-1.697-.361-.38-.877-.57-1.55-.57-.761 0-1.361.223-1.799.672-.439.439-.659 1.073-.659 1.901v3.994h-1.404V3.756h1.346v1.17c.283-.4.663-.706 1.141-.921.487-.215 1.038-.322 1.653-.322zM130.112 7.676c0 .108-.009.249-.029.425h-6.289c.087.682.385 1.233.892 1.652.517.41 1.155.615 1.916.615.926 0 1.672-.312 2.238-.936l.775.906c-.351.41-.79.722-1.316.937-.517.214-1.097.321-1.741.321-.819 0-1.546-.165-2.179-.497a3.698 3.698 0 01-1.478-1.419c-.341-.604-.512-1.287-.512-2.048 0-.75.166-1.428.498-2.033a3.626 3.626 0 011.389-1.404c.595-.341 1.263-.512 2.004-.512.741 0 1.399.17 1.975.512.585.332 1.038.8 1.36 1.404.332.605.497 1.297.497 2.077zm-3.832-2.808c-.673 0-1.238.205-1.697.614-.448.41-.711.946-.789 1.61h4.973c-.078-.654-.347-1.186-.805-1.595-.448-.42-1.009-.629-1.682-.629zM143.684 11.67l-1.36-1.36c-.907.877-2.048 1.316-3.423 1.316-.683 0-1.297-.113-1.843-.337-.546-.224-.975-.536-1.287-.936a2.284 2.284 0 01-.454-1.39c0-.624.191-1.175.571-1.652.39-.488 1.029-.985 1.916-1.492-.449-.449-.765-.854-.951-1.214a2.438 2.438 0 01-.278-1.127c0-.692.249-1.248.746-1.667.507-.42 1.18-.629 2.019-.629.78 0 1.399.19 1.857.57.459.38.688.902.688 1.566 0 .516-.171.98-.512 1.39-.332.409-.887.838-1.668 1.286l2.531 2.516a6.543 6.543 0 00.629-1.858l1.126.366c-.175.897-.473 1.677-.892 2.34l1.375 1.375-.79.936zm-4.344-9.464c-.458 0-.819.117-1.083.35-.253.225-.38.523-.38.893 0 .263.068.517.205.76.146.245.424.576.834.995.672-.38 1.136-.707 1.389-.98.263-.273.395-.57.395-.892 0-.341-.122-.614-.366-.819-.234-.205-.565-.307-.994-.307zm-.351 8.25c1.014 0 1.848-.322 2.501-.966l-2.911-2.896c-.702.39-1.194.756-1.477 1.097-.273.332-.41.707-.41 1.126 0 .488.21.883.629 1.185.429.302.985.453 1.668.453zM161.677 3.756l-2.897 7.753h-1.345l-2.238-5.88-2.267 5.88h-1.346l-2.881-7.753h1.331l2.252 6.173 2.34-6.173h1.185l2.297 6.202 2.311-6.202h1.258zM163.101 3.756h1.405v7.753h-1.405V3.756zm.702-1.492a.96.96 0 01-.687-.263.873.873 0 01-.263-.643c0-.254.087-.469.263-.644a.932.932 0 01.687-.278.91.91 0 01.673.263.805.805 0 01.278.63.914.914 0 01-.278.672.91.91 0 01-.673.263zM171.326 3.683c.985 0 1.765.288 2.34.863.585.566.878 1.4.878 2.501v4.462h-1.404v-4.3c0-.752-.181-1.317-.541-1.697-.361-.38-.878-.57-1.551-.57-.76 0-1.36.223-1.799.672-.439.439-.658 1.073-.658 1.901v3.994h-1.404V3.756h1.345v1.17c.283-.4.663-.706 1.141-.921.488-.215 1.039-.322 1.653-.322zM184.192 7.676c0 .108-.01.249-.03.425h-6.289c.088.682.385 1.233.892 1.652.517.41 1.156.615 1.916.615.927 0 1.673-.312 2.238-.936l.775.906a3.38 3.38 0 01-1.316.937c-.517.214-1.097.321-1.741.321-.819 0-1.545-.165-2.179-.497a3.695 3.695 0 01-1.477-1.419c-.342-.604-.512-1.287-.512-2.048 0-.75.166-1.428.497-2.033a3.629 3.629 0 011.39-1.404c.594-.341 1.262-.512 2.004-.512.741 0 1.399.17 1.974.512.585.332 1.039.8 1.36 1.404.332.605.498 1.297.498 2.077zm-3.832-2.808c-.673 0-1.239.205-1.697.614-.449.41-.712.946-.79 1.61h4.973c-.078-.654-.346-1.186-.804-1.595-.449-.42-1.01-.629-1.682-.629z" fill="#fff"/></svg>