<?xml version="1.0" encoding="utf-8"?><svg width="166" height="22" fill="none" xmlns="http://www.w3.org/2000/svg" viewBox="0 0 166 22"><path d="M20.21 21.364l-.03-13.962-6.92 11.554h-1.745L4.593 7.583v13.78H.863V.302h3.22l8.364 13.961L20.662.301h3.22l.03 21.063H20.21zM38.658 21.665c-2.909 0-5.176-.813-6.8-2.438-1.625-1.645-2.438-3.992-2.438-7.04V.3h3.912v11.735c0 4.132 1.785 6.198 5.356 6.198 3.55 0 5.326-2.066 5.326-6.198V.3h3.851v11.885c0 3.05-.812 5.396-2.437 7.041-1.605 1.625-3.862 2.438-6.77 2.438zM67.726 10.591h3.701v8.396c-1.083.862-2.347 1.524-3.791 1.985a14.546 14.546 0 01-4.453.692c-2.147 0-4.083-.46-5.808-1.384-1.725-.942-3.079-2.236-4.062-3.881-.983-1.645-1.474-3.5-1.474-5.567 0-2.066.491-3.921 1.474-5.566s2.337-2.929 4.062-3.852C59.12.471 61.076 0 63.243 0c1.765 0 3.37.29 4.814.873 1.444.581 2.658 1.434 3.64 2.557l-2.466 2.407C67.626 4.233 65.69 3.43 63.423 3.43c-1.484 0-2.808.311-3.972.933a6.932 6.932 0 00-2.708 2.618c-.642 1.123-.962 2.407-.962 3.851 0 1.404.32 2.668.962 3.791a7.15 7.15 0 002.708 2.648c1.164.642 2.478.963 3.942.963 1.645 0 3.09-.36 4.333-1.083v-6.56zM90.247 16.49H79.716l-2.077 4.874h-4.032L83.086.3h3.851l9.508 21.063h-4.092l-2.106-4.875zm-1.294-3.07l-3.972-9.207-3.941 9.207h7.913zM112.905 21.364l-4.303-6.169c-.18.02-.451.03-.812.03h-4.754v6.139h-3.912V.3h8.666c1.825 0 3.41.3 4.754.903 1.364.601 2.407 1.464 3.129 2.587.722 1.124 1.084 2.458 1.084 4.002 0 1.585-.392 2.949-1.174 4.092-.762 1.144-1.866 1.996-3.31 2.558l4.845 6.92h-4.213zm-.09-13.57c0-1.345-.442-2.378-1.324-3.1-.883-.722-2.177-1.083-3.882-1.083h-4.573v8.395h4.573c1.705 0 2.999-.361 3.882-1.084.882-.742 1.324-1.785 1.324-3.129zM121.133.3h3.912v21.064h-3.912V.3zM135.014 3.61h-6.98V.3h17.873v3.31h-6.981v17.754h-3.912V3.61zM165.211 18.054v3.31h-17.963v-2.618L159.644 3.61h-12.186V.3h17.362v2.618l-12.397 15.135h12.788z" fill="#333"/></svg>