<?xml version="1.0" encoding="utf-8"?><svg width="35" height="35" fill="none" xmlns="http://www.w3.org/2000/svg" viewBox="0 0 35 35"><g clip-path="url(#fclip0)" fill-rule="evenodd" clip-rule="evenodd" fill="#fff"><path d="M19.928 11.31a.762.762 0 011.078 0l5.386 5.387a.762.762 0 010 1.077l-5.386 5.386a.762.762 0 01-1.078-1.077l4.848-4.848-4.848-4.847a.762.762 0 010-1.077z"/><path d="M26.616 17.235a.762.762 0 01-.763.763H6.463a.763.763 0 010-1.525h19.39a.764.764 0 01.763.762z"/></g><defs><clipPath id="fclip0"><path fill="#fff" transform="rotate(45 8.618 20.805)" d="M0 0h24.374v24.374H0z"/></clipPath></defs></svg>