<?xml version="1.0" encoding="utf-8"?><svg width="27" height="27" fill="none" xmlns="http://www.w3.org/2000/svg" viewBox="0 0 27 27"><g clip-path="url(#eclip0)" fill-rule="evenodd" clip-rule="evenodd" fill="#fff"><path d="M15.575 8.84a.595.595 0 01.842 0l4.21 4.21a.595.595 0 010 .841l-4.21 4.21a.596.596 0 01-.842-.842l3.789-3.788-3.789-3.789a.595.595 0 010-.842z"/><path d="M20.802 13.47a.596.596 0 01-.596.597H5.05a.596.596 0 010-1.193h15.155a.594.594 0 01.596.597z"/></g><path stroke="#000" stroke-opacity=".6" d="M13.471.707l12.763 12.764-12.763 12.763L.708 13.47z"/><path transform="rotate(45 13.47 .707)" stroke="url(#epaint0_linear)" d="M13.471.707h18.05v18.05h-18.05z"/><path transform="rotate(45 13.47 .707)" stroke="url(#epaint1_linear)" d="M13.471.707h18.05v18.05h-18.05z"/><path transform="rotate(45 13.47 .707)" stroke="url(#epaint2_linear)" d="M13.471.707h18.05v18.05h-18.05z"/><defs><linearGradient id="epaint0_linear" x1="22.996" y1="0" x2="22.996" y2="19.05" gradientUnits="userSpaceOnUse"><stop stop-color="#fff"/><stop offset="1" stop-color="#fff" stop-opacity="0"/></linearGradient><linearGradient id="epaint1_linear" x1="22.996" y1="0" x2="22.996" y2="19.05" gradientUnits="userSpaceOnUse"><stop stop-color="#fff"/><stop offset="1" stop-color="#fff" stop-opacity="0"/></linearGradient><linearGradient id="epaint2_linear" x1="22.996" y1="0" x2="22.996" y2="19.05" gradientUnits="userSpaceOnUse"><stop stop-color="#fff"/><stop offset="1" stop-color="#fff" stop-opacity="0"/></linearGradient><clipPath id="eclip0"/></defs></svg>