<?xml version="1.0" encoding="utf-8"?><svg width="27" height="27" fill="none" xmlns="http://www.w3.org/2000/svg" viewBox="0 0 27 27"><path d="M20.164 5.176a2.954 2.954 0 00-4.121.682L8.591 16.26a2.109 2.109 0 103.429 2.456l5.262-7.345-.686-.492-5.261 7.346a1.267 1.267 0 01-2.276-.53c-.055-.331.024-.67.22-.944l7.45-10.403h.002l-.002-.002a2.114 2.114 0 012.945-.486 2.115 2.115 0 01.486 2.945v-.002l-8.168 11.404a2.958 2.958 0 01-4.12.684 2.96 2.96 0 01-.682-4.123l5.936-8.287-.686-.491-5.936 8.287a3.795 3.795 0 002.227 5.908 3.793 3.793 0 003.947-1.486l8.168-11.404a2.954 2.954 0 00-.684-4.12h.002z" fill="#fff"/></svg>