<svg width="20" height="22" viewBox="0 0 20 22" fill="none" xmlns="http://www.w3.org/2000/svg"><path d="M6.667 11c0-2.025 1.492-3.667 3.333-3.667 1.841 0 3.334 1.642 3.334 3.667S11.841 14.667 10 14.667c-1.84 0-3.333-1.642-3.333-3.667zm-1.802 0c0 3.12 2.3 5.648 5.135 5.648 2.836 0 5.136-2.528 5.136-5.648 0-3.12-2.3-5.648-5.136-5.648-2.836 0-5.135 2.528-5.135 5.648zm9.274-5.872c0 .26.07.516.202.733.132.217.319.387.538.487.22.1.46.126.693.075a1.17 1.17 0 00.615-.361c.168-.185.282-.42.329-.676a1.443 1.443 0 00-.068-.762 1.302 1.302 0 00-.442-.593 1.124 1.124 0 00-.667-.223c-.318 0-.623.14-.848.387a1.39 1.39 0 00-.352.933zM5.96 19.954c-.975-.05-1.505-.228-1.857-.379a3.1 3.1 0 01-1.15-.822 3.444 3.444 0 01-.748-1.265c-.137-.387-.3-.97-.344-2.043-.049-1.16-.058-1.507-.058-4.445 0-2.937.01-3.285.058-4.445.044-1.073.208-1.655.344-2.043a3.47 3.47 0 01.748-1.265c.35-.385.682-.624 1.15-.823.352-.151.882-.33 1.857-.378 1.054-.054 1.371-.064 4.04-.064 2.67 0 2.987.011 4.042.064.975.048 1.504.228 1.857.378.467.199.8.438 1.15.823.35.385.566.751.748 1.265.137.387.3.97.344 2.043.049 1.16.058 1.508.058 4.445 0 2.938-.01 3.285-.058 4.445-.044 1.073-.207 1.656-.344 2.043a3.46 3.46 0 01-.748 1.265 3.1 3.1 0 01-1.15.822c-.352.151-.882.33-1.857.379-1.054.053-1.371.064-4.042.064-2.67 0-2.986-.01-4.04-.064zM5.877.067C4.813.12 4.085.306 3.45.577a4.885 4.885 0 00-1.771 1.27A5.457 5.457 0 00.525 3.794c-.247.7-.416 1.499-.464 2.67C.01 7.638 0 8.013 0 11s.011 3.362.06 4.535c.049 1.171.218 1.97.465 2.67a5.46 5.46 0 001.154 1.949 4.897 4.897 0 001.771 1.268c.637.272 1.363.458 2.427.511C6.944 21.987 7.285 22 10 22c2.716 0 3.057-.012 4.123-.067 1.065-.053 1.792-.239 2.428-.51a4.898 4.898 0 001.771-1.27 5.472 5.472 0 001.154-1.948c.247-.7.417-1.499.464-2.67.049-1.174.06-1.548.06-4.535s-.011-3.362-.06-4.535c-.048-1.171-.217-1.971-.464-2.67a5.492 5.492 0 00-1.154-1.949 4.873 4.873 0 00-1.77-1.268c-.637-.272-1.364-.459-2.428-.511C13.058.013 12.717 0 10.001 0S6.944.012 5.877.067z" fill="#fff"/></svg>