<svg width="159" height="10" viewBox="0 0 159 10" fill="none" xmlns="http://www.w3.org/2000/svg"><path d="M8.901 3.003c.836 0 1.496.242 1.981.727.493.484.74 1.203.74 2.156V9.71h-1.204V6.024c0-.644-.15-1.128-.451-1.454-.293-.326-.715-.49-1.267-.49-.61 0-1.094.193-1.454.577-.36.377-.539.92-.539 1.63V9.71H5.503V6.024c0-.644-.15-1.128-.45-1.454-.293-.326-.716-.49-1.267-.49-.61 0-1.095.193-1.454.577-.36.377-.54.92-.54 1.63V9.71H.59V3.065h1.153v.99c.243-.342.56-.601.953-.777.393-.184.84-.275 1.342-.275.518 0 .978.104 1.379.313.4.209.71.514.927.915a2.566 2.566 0 011.041-.903 3.452 3.452 0 011.517-.325zm7.818 6.782c-.66 0-1.254-.146-1.78-.439a3.24 3.24 0 01-1.242-1.203c-.292-.518-.438-1.103-.438-1.755 0-.652.146-1.233.438-1.743.301-.518.715-.92 1.242-1.204.526-.292 1.12-.438 1.78-.438.66 0 1.25.146 1.768.438.526.285.936.686 1.228 1.204.301.51.452 1.09.452 1.743a3.43 3.43 0 01-.452 1.755 3.15 3.15 0 01-1.228 1.203c-.518.293-1.108.44-1.768.44zm0-1.053c.426 0 .806-.096 1.14-.288.344-.2.611-.477.803-.828.193-.36.289-.769.289-1.228 0-.46-.096-.865-.289-1.217a2.016 2.016 0 00-.802-.827 2.248 2.248 0 00-1.141-.288c-.426 0-.81.096-1.154.288a2.124 2.124 0 00-.802.827 2.49 2.49 0 00-.288 1.217c0 .46.096.869.288 1.228.2.351.468.627.803.828.342.192.727.288 1.153.288zM21.831.407h1.204V9.71H21.83V.407zm9.507 6.018c0 .092-.008.213-.025.364h-5.39c.074.585.33 1.057.764 1.417.443.35.99.526 1.642.526.794 0 1.434-.267 1.918-.802l.665.777c-.3.351-.677.619-1.128.802-.443.184-.94.276-1.492.276-.702 0-1.325-.142-1.868-.426a3.17 3.17 0 01-1.267-1.216c-.292-.518-.438-1.103-.438-1.755 0-.644.142-1.225.426-1.743.292-.518.69-.92 1.19-1.204a3.389 3.389 0 011.718-.438c.636 0 1.2.146 1.693.438.502.285.89.686 1.166 1.204.284.518.426 1.112.426 1.78zm-3.285-2.407c-.576 0-1.061.176-1.454.527-.384.35-.61.81-.677 1.379h4.263c-.067-.56-.297-1.016-.69-1.367-.384-.36-.865-.539-1.442-.539zm7.853 5.767c-.677 0-1.283-.146-1.818-.439a3.24 3.24 0 01-1.241-1.203 3.43 3.43 0 01-.452-1.755c0-.652.15-1.233.452-1.743.3-.518.714-.92 1.24-1.204.536-.292 1.142-.438 1.819-.438.602 0 1.136.12 1.604.363a2.58 2.58 0 011.104 1.053l-.915.59a2.045 2.045 0 00-.778-.715 2.217 2.217 0 00-1.028-.238c-.434 0-.827.096-1.178.288a2.098 2.098 0 00-.815.827 2.492 2.492 0 00-.289 1.217c0 .468.097.881.289 1.24.2.352.472.623.815.816.35.192.743.288 1.178.288.376 0 .719-.08 1.028-.238a2.04 2.04 0 00.778-.715l.915.577a2.66 2.66 0 01-1.104 1.066c-.468.242-1.002.363-1.604.363zm10.459-6.72V9.71h-1.14V8.707a2.46 2.46 0 01-.966.802 3.007 3.007 0 01-1.291.276c-.886 0-1.584-.242-2.094-.727-.51-.493-.765-1.216-.765-2.169V3.065h1.204v3.686c0 .644.154 1.133.464 1.467.309.326.752.489 1.329.489.635 0 1.136-.192 1.504-.577.368-.384.552-.927.552-1.63V3.065h1.203zM48.657.407h1.203V9.71h-1.203V.407zm5.921 2.596c.92 0 1.621.225 2.106.677.493.45.74 1.124.74 2.018V9.71h-1.14v-.878c-.201.31-.49.548-.866.715-.368.159-.806.238-1.316.238-.744 0-1.342-.18-1.793-.539-.443-.36-.665-.832-.665-1.417 0-.585.213-1.053.64-1.404.426-.36 1.103-.539 2.03-.539h1.906v-.238c0-.518-.15-.915-.45-1.191-.302-.276-.745-.414-1.33-.414-.393 0-.777.067-1.153.2a2.883 2.883 0 00-.953.515l-.502-.903a3.556 3.556 0 011.229-.627 5.01 5.01 0 011.517-.225zm-.276 5.854c.46 0 .857-.1 1.191-.3a1.79 1.79 0 00.727-.878V6.75h-1.855c-1.02 0-1.53.343-1.53 1.028 0 .335.13.598.389.79.26.192.619.288 1.078.288zm6.503-4.676c.209-.384.518-.677.928-.878.41-.2.906-.3 1.492-.3v1.165a2.35 2.35 0 00-.276-.012c-.652 0-1.166.196-1.542.59-.368.384-.552.935-.552 1.654v3.31H59.65V3.065h1.154v1.116zm10.252 5.604c-.677 0-1.283-.146-1.818-.439a3.24 3.24 0 01-1.241-1.203 3.43 3.43 0 01-.452-1.755c0-.652.15-1.233.452-1.743.3-.518.714-.92 1.24-1.204.536-.292 1.142-.438 1.819-.438.602 0 1.136.12 1.604.363a2.58 2.58 0 011.104 1.053l-.915.59a2.045 2.045 0 00-.778-.715 2.217 2.217 0 00-1.028-.238c-.434 0-.827.096-1.178.288a2.098 2.098 0 00-.815.827 2.492 2.492 0 00-.289 1.217c0 .468.097.881.289 1.24.2.352.472.623.815.816.35.192.743.288 1.178.288.376 0 .719-.08 1.028-.238a2.04 2.04 0 00.778-.715l.915.577a2.66 2.66 0 01-1.104 1.066c-.468.242-1.002.363-1.604.363zm10.459-6.72V9.71h-1.14V8.707a2.46 2.46 0 01-.966.802 3.007 3.007 0 01-1.291.276c-.886 0-1.584-.242-2.094-.727-.51-.493-.765-1.216-.765-2.169V3.065h1.204v3.686c0 .644.154 1.133.464 1.467.309.326.752.489 1.329.489.635 0 1.136-.192 1.504-.577.368-.384.552-.927.552-1.63V3.065h1.203zm2.292 0h1.203V9.71h-1.203V3.065zm.601-1.279a.824.824 0 01-.589-.225.75.75 0 01-.225-.552.75.75 0 01.225-.552.8.8 0 01.59-.238.78.78 0 01.576.226.692.692 0 01.238.539.785.785 0 01-.238.577.78.78 0 01-.577.225zm4.806 7.999a5.721 5.721 0 01-1.567-.213c-.502-.15-.894-.338-1.179-.564l.502-.953a3.6 3.6 0 001.066.502c.417.125.84.188 1.266.188 1.053 0 1.58-.301 1.58-.903 0-.2-.072-.36-.214-.476a1.29 1.29 0 00-.539-.251 9.453 9.453 0 00-.902-.188 9.142 9.142 0 01-1.317-.289 2.023 2.023 0 01-.865-.551c-.242-.26-.364-.623-.364-1.091 0-.602.251-1.082.753-1.442.501-.368 1.174-.551 2.018-.551.443 0 .886.054 1.33.163.442.108.806.254 1.09.438l-.514.953c-.543-.35-1.183-.526-1.918-.526-.51 0-.899.083-1.166.25-.268.167-.401.389-.401.665 0 .217.075.388.225.514.15.125.334.217.552.276.225.058.539.125.94.2.535.092.966.192 1.291.301.335.1.619.276.853.527.234.25.351.602.351 1.053 0 .602-.259 1.082-.777 1.442-.51.35-1.208.526-2.094.526zm4.375-6.72h1.204V9.71H93.59V3.065zm.602-1.279a.824.824 0 01-.59-.225.75.75 0 01-.225-.552.75.75 0 01.226-.552.8.8 0 01.589-.238.78.78 0 01.577.226.692.692 0 01.238.539c0 .226-.08.418-.238.577a.78.78 0 01-.577.225zm6.448 1.217c.844 0 1.513.246 2.006.74.501.484.752 1.199.752 2.143V9.71h-1.203V6.024c0-.644-.155-1.128-.464-1.454-.31-.326-.753-.49-1.329-.49-.652 0-1.166.193-1.542.577-.376.377-.565.92-.565 1.63V9.71h-1.203V3.065h1.153v1.003a2.36 2.36 0 01.978-.79c.418-.184.89-.275 1.417-.275zm11.028 3.422c0 .092-.009.213-.025.364h-5.391c.075.585.33 1.057.764 1.417.443.35.991.526 1.643.526.794 0 1.433-.267 1.918-.802l.664.777c-.3.351-.677.619-1.128.802-.443.184-.94.276-1.492.276-.702 0-1.325-.142-1.868-.426a3.17 3.17 0 01-1.266-1.216c-.293-.518-.439-1.103-.439-1.755 0-.644.142-1.225.426-1.743.293-.518.69-.92 1.191-1.204a3.391 3.391 0 011.718-.438c.635 0 1.199.146 1.692.438a2.94 2.94 0 011.166 1.204c.285.518.427 1.112.427 1.78zm-3.285-2.407c-.577 0-1.062.176-1.454.527-.385.35-.611.81-.677 1.379h4.262c-.067-.56-.296-1.016-.689-1.367-.385-.36-.865-.539-1.442-.539zm14.918 5.83l-1.166-1.166c-.778.752-1.756 1.128-2.934 1.128a4.126 4.126 0 01-1.58-.288c-.468-.192-.836-.46-1.103-.802a1.956 1.956 0 01-.389-1.192c0-.534.163-1.007.489-1.416.334-.418.882-.844 1.643-1.279-.385-.385-.657-.731-.815-1.04a2.086 2.086 0 01-.239-.966c0-.593.214-1.07.64-1.43.434-.359 1.011-.538 1.73-.538.669 0 1.199.163 1.592.489.393.326.589.773.589 1.341 0 .443-.146.84-.438 1.191-.285.351-.761.719-1.43 1.103l2.169 2.157a5.56 5.56 0 00.539-1.592l.966.313c-.151.769-.406 1.438-.765 2.006l1.179 1.179-.677.802zm-3.724-8.112c-.393 0-.702.1-.928.301-.217.192-.326.447-.326.765 0 .226.059.443.176.652.125.209.363.493.714.852.577-.326.974-.606 1.191-.84.226-.234.339-.489.339-.764a.87.87 0 00-.314-.702c-.2-.176-.484-.264-.852-.264zm-.301 7.071c.869 0 1.584-.276 2.144-.827l-2.495-2.483c-.602.335-1.024.648-1.266.94a1.478 1.478 0 00-.351.966c0 .418.179.757.539 1.016.368.259.844.388 1.429.388zm19.447-5.742L136.24 9.71h-1.153l-1.918-5.04-1.944 5.04h-1.153l-2.47-6.645h1.141l1.931 5.291 2.006-5.29h1.015l1.969 5.315 1.981-5.316h1.078zm1.221 0h1.204V9.71h-1.204V3.065zm.602-1.279a.822.822 0 01-.589-.225.749.749 0 01-.226-.552.75.75 0 01.226-.552.799.799 0 01.589-.238.78.78 0 01.577.226.695.695 0 01.238.539.788.788 0 01-.815.802zm6.448 1.217c.844 0 1.513.246 2.006.74.501.484.752 1.199.752 2.143V9.71h-1.204V6.024c0-.644-.154-1.128-.464-1.454-.309-.326-.752-.49-1.329-.49-.651 0-1.165.193-1.542.577-.376.377-.564.92-.564 1.63V9.71h-1.203V3.065h1.153v1.003c.242-.342.568-.606.978-.79.418-.184.89-.275 1.417-.275zm11.027 3.422c0 .092-.008.213-.025.364h-5.391c.076.585.33 1.057.765 1.417.443.35.991.526 1.642.526.795 0 1.434-.267 1.919-.802l.664.777a2.903 2.903 0 01-1.128.802c-.443.184-.94.276-1.492.276-.702 0-1.325-.142-1.868-.426a3.164 3.164 0 01-1.266-1.216c-.293-.518-.439-1.103-.439-1.755 0-.644.142-1.225.426-1.743.293-.518.69-.92 1.191-1.204a3.389 3.389 0 011.718-.438c.635 0 1.199.146 1.692.438.502.285.89.686 1.166 1.204.284.518.426 1.112.426 1.78zm-3.284-2.407c-.577 0-1.062.176-1.455.527-.384.35-.61.81-.677 1.379h4.263c-.067-.56-.297-1.016-.69-1.367-.384-.36-.865-.539-1.441-.539z" fill="#333"/></svg>