<svg width="193" height="26" viewBox="0 0 193 26" fill="none" xmlns="http://www.w3.org/2000/svg"><path d="M22.912 25.104l-.035-16.289-8.074 13.48h-2.036L4.693 9.027v16.078H.34V.53h3.756l9.76 16.288L23.438.531h3.756l.035 24.573h-4.318zm21.522.351c-3.393 0-6.038-.948-7.934-2.844-1.895-1.919-2.843-4.657-2.843-8.214V.531h4.564v13.69c0 4.822 2.082 7.232 6.248 7.232 4.142 0 6.214-2.41 6.214-7.231V.53h4.493v13.866c0 3.557-.948 6.295-2.843 8.214-1.873 1.896-4.506 2.844-7.899 2.844zm33.913-12.918h4.318v9.794c-1.264 1.006-2.738 1.778-4.423 2.317a16.97 16.97 0 01-5.196.807c-2.504 0-4.762-.538-6.775-1.615-2.013-1.1-3.592-2.61-4.739-4.528-1.147-1.92-1.72-4.084-1.72-6.495 0-2.41.573-4.575 1.72-6.494 1.147-1.92 2.727-3.417 4.74-4.493C68.306.73 70.588.18 73.115.18c2.06 0 3.932.339 5.617 1.018 1.685.678 3.101 1.673 4.248 2.984L80.102 6.99c-1.872-1.872-4.13-2.808-6.775-2.808-1.732 0-3.276.362-4.634 1.088a8.088 8.088 0 00-3.159 3.054c-.749 1.31-1.123 2.808-1.123 4.493 0 1.639.374 3.113 1.123 4.424a8.343 8.343 0 003.16 3.089c1.357.749 2.89 1.123 4.598 1.123 1.92 0 3.604-.421 5.055-1.264v-7.652zm26.274 6.88H92.335l-2.422 5.687h-4.704L96.266.53h4.494l11.093 24.573h-4.774l-2.458-5.687zm-1.509-3.58L98.478 5.093 93.88 15.836h9.233zm27.944 9.267l-5.02-7.197a9.336 9.336 0 01-.948.036h-5.546v7.16h-4.564V.532h10.11c2.13 0 3.979.35 5.547 1.053 1.591.702 2.808 1.708 3.651 3.019.842 1.31 1.263 2.867 1.263 4.669 0 1.849-.456 3.44-1.369 4.774-.889 1.334-2.176 2.329-3.861 2.984l5.652 8.074h-4.915zm-.105-15.832c0-1.568-.515-2.774-1.545-3.616-1.03-.843-2.539-1.264-4.528-1.264h-5.336v9.794h5.336c1.989 0 3.498-.42 4.528-1.263 1.03-.866 1.545-2.083 1.545-3.651zM140.655.53h4.564v24.574h-4.564V.53zm16.195 3.862h-8.144V.531h20.852v3.861h-8.144v20.712h-4.564V4.392zm35.23 16.85v3.862h-20.958V22.05l14.463-17.658h-14.217V.531h20.255v3.054L177.16 21.242h14.92z" fill="#fff"/></svg>