<?xml version="1.0" encoding="utf-8"?><svg viewBox="0 0 184 163" xmlns="http://www.w3.org/2000/svg" xmlns:xlink="http://www.w3.org/1999/xlink"><style>:root>svg{display:none}:root>svg:target{display:block}</style><svg fill="none" viewBox="0 0 124 27" id="Group1" xmlns="http://www.w3.org/2000/svg"><path d="M4.088 13.563c-1.126-.323-1.946-.72-2.461-1.189a2.294 2.294 0 01-.766-1.75c0-.784.313-1.431.937-1.941.629-.515 1.445-.773 2.447-.773.684 0 1.292.132 1.825.397.538.264.953.629 1.244 1.093.297.465.445.973.445 1.525h-1.32c0-.602-.19-1.073-.574-1.415-.383-.347-.923-.52-1.62-.52-.647 0-1.153.144-1.517.43-.36.283-.54.678-.54 1.184 0 .405.17.75.512 1.032.347.278.932.533 1.757.765.83.233 1.477.49 1.941.773.47.278.816.604 1.04.977.227.374.341.814.341 1.32 0 .806-.314 1.453-.943 1.941-.629.483-1.47.725-2.523.725-.683 0-1.321-.13-1.914-.39-.592-.264-1.05-.624-1.374-1.08a2.64 2.64 0 01-.478-1.552h1.32c0 .602.22 1.078.662 1.429.447.346 1.042.52 1.784.52.693 0 1.224-.142 1.593-.424.37-.283.554-.668.554-1.156 0-.487-.17-.863-.513-1.128-.342-.268-.961-.533-1.86-.793zM17.118 18h-1.32v-4.6H10.78V18H9.468V8.047h1.312v4.28h5.018v-4.28h1.32V18zm9.987-4.655c0 .975-.165 1.827-.493 2.556-.328.725-.793 1.279-1.394 1.662-.602.382-1.304.574-2.106.574-.784 0-1.478-.192-2.085-.575-.606-.387-1.078-.936-1.415-1.647-.332-.715-.503-1.543-.512-2.481v-.718c0-.957.166-1.803.499-2.536.332-.734.802-1.295 1.408-1.682.61-.392 1.308-.588 2.092-.588.797 0 1.499.194 2.105.581.61.383 1.08.941 1.408 1.675.328.73.493 1.58.493 2.55v.629zm-1.306-.643c0-1.18-.237-2.085-.711-2.714-.474-.633-1.137-.95-1.99-.95-.829 0-1.483.317-1.961.95-.474.63-.718 1.504-.732 2.625v.732c0 1.144.24 2.044.718 2.7.483.652 1.146.977 1.99.977.847 0 1.503-.307 1.968-.922.465-.62.704-1.507.718-2.66v-.738zm5.42 2.16l.192 1.313.28-1.183 1.97-6.945h1.107l1.92 6.945.274 1.203.212-1.34 1.545-6.808h1.32L37.624 18h-1.196l-2.051-7.253-.157-.759-.157.76L31.936 18h-1.196l-2.406-9.953h1.313l1.572 6.815zm15.45-6.815l3.254 8.121 3.254-8.121h1.702V18h-1.313v-3.876l.123-4.184L50.422 18h-1.005l-3.26-8.04.13 4.164V18h-1.313V8.047h1.695zm18.184 5.298c0 .975-.164 1.827-.493 2.556-.328.725-.793 1.279-1.394 1.662-.602.382-1.304.574-2.106.574-.783 0-1.478-.192-2.085-.575-.606-.387-1.077-.936-1.415-1.647-.332-.715-.503-1.543-.512-2.481v-.718c0-.957.166-1.803.499-2.536.332-.734.802-1.295 1.408-1.682.61-.392 1.308-.588 2.092-.588.797 0 1.499.194 2.105.581.61.383 1.08.941 1.408 1.675.329.73.493 1.58.493 2.55v.629zm-1.306-.643c0-1.18-.237-2.085-.711-2.714-.474-.633-1.137-.95-1.99-.95-.829 0-1.483.317-1.961.95-.474.63-.718 1.504-.732 2.625v.732c0 1.144.24 2.044.718 2.7.483.652 1.146.977 1.99.977.847 0 1.503-.307 1.968-.922.465-.62.704-1.507.718-2.66v-.738zm6.925 1.272h-2.338V18h-1.32V8.047h3.295c1.122 0 1.983.255 2.584.765.606.51.91 1.254.91 2.229 0 .62-.17 1.16-.506 1.62-.333.46-.798.805-1.395 1.032l2.338 4.225V18h-1.408l-2.16-4.026zM68.134 12.9h2.016c.652 0 1.17-.168 1.552-.505.388-.338.581-.789.581-1.354 0-.615-.184-1.087-.553-1.415-.365-.328-.894-.494-1.586-.499h-2.01V12.9zm12.94.5h-4.313v3.527h5.01V18h-6.323V8.047h6.255v1.08h-4.942v3.2h4.313v1.072z" fill="#fff"/><g clip-path="url(#aclip0)" fill-rule="evenodd" clip-rule="evenodd" fill="#fff"><path d="M112.575 8.84a.596.596 0 01.842 0l4.21 4.21a.597.597 0 010 .841l-4.21 4.21a.594.594 0 01-1.016-.42c0-.159.063-.31.174-.422l3.789-3.789-3.789-3.788a.598.598 0 010-.842z"/><path d="M117.802 13.47a.596.596 0 01-.596.597h-15.155a.595.595 0 010-1.193h15.155a.593.593 0 01.596.597z"/></g><defs><clipPath id="aclip0"><path fill="#fff" transform="rotate(45 55.236 133.35)" d="M0 0h19.05v19.05H0z"/></clipPath></defs></svg><svg fill="none" viewBox="0 0 124 27" id="arrow" xmlns="http://www.w3.org/2000/svg"><path d="M4.088 13.563c-1.126-.323-1.946-.72-2.461-1.189a2.294 2.294 0 01-.766-1.75c0-.784.313-1.431.937-1.941.629-.515 1.445-.773 2.447-.773.684 0 1.292.132 1.825.397.538.264.953.629 1.244 1.093.297.465.445.973.445 1.525h-1.32c0-.602-.19-1.073-.574-1.415-.383-.347-.923-.52-1.62-.52-.647 0-1.153.144-1.517.43-.36.283-.54.678-.54 1.184 0 .405.17.75.512 1.032.347.278.932.533 1.757.765.83.233 1.477.49 1.941.773.47.278.816.604 1.04.977.227.374.341.814.341 1.32 0 .806-.314 1.453-.943 1.941-.629.483-1.47.725-2.523.725-.683 0-1.321-.13-1.914-.39-.592-.264-1.05-.624-1.374-1.08a2.64 2.64 0 01-.478-1.552h1.32c0 .602.22 1.078.662 1.429.447.346 1.042.52 1.784.52.693 0 1.224-.142 1.593-.424.37-.283.554-.668.554-1.156 0-.487-.17-.863-.513-1.128-.342-.268-.961-.533-1.86-.793zM17.118 18h-1.32v-4.6H10.78V18H9.468V8.047h1.312v4.28h5.018v-4.28h1.32V18zm9.987-4.655c0 .975-.165 1.827-.493 2.556-.328.725-.793 1.279-1.394 1.662-.602.382-1.304.574-2.106.574-.784 0-1.478-.192-2.085-.575-.606-.387-1.078-.936-1.415-1.647-.332-.715-.503-1.543-.512-2.481v-.718c0-.957.166-1.803.499-2.536.332-.734.802-1.295 1.408-1.682.61-.392 1.308-.588 2.092-.588.797 0 1.499.194 2.105.581.61.383 1.08.941 1.408 1.675.328.73.493 1.58.493 2.55v.629zm-1.306-.643c0-1.18-.237-2.085-.711-2.714-.474-.633-1.137-.95-1.99-.95-.829 0-1.483.317-1.961.95-.474.63-.718 1.504-.732 2.625v.732c0 1.144.24 2.044.718 2.7.483.652 1.146.977 1.99.977.847 0 1.503-.307 1.968-.922.465-.62.704-1.507.718-2.66v-.738zm5.42 2.16l.192 1.313.28-1.183 1.97-6.945h1.107l1.92 6.945.274 1.203.212-1.34 1.545-6.808h1.32L37.624 18h-1.196l-2.051-7.253-.157-.759-.157.76L31.936 18h-1.196l-2.406-9.953h1.313l1.572 6.815zm15.45-6.815l3.254 8.121 3.254-8.121h1.702V18h-1.313v-3.876l.123-4.184L50.422 18h-1.005l-3.26-8.04.13 4.164V18h-1.313V8.047h1.695zm18.184 5.298c0 .975-.164 1.827-.493 2.556-.328.725-.793 1.279-1.394 1.662-.602.382-1.304.574-2.106.574-.783 0-1.478-.192-2.085-.575-.606-.387-1.077-.936-1.415-1.647-.332-.715-.503-1.543-.512-2.481v-.718c0-.957.166-1.803.499-2.536.332-.734.802-1.295 1.408-1.682.61-.392 1.308-.588 2.092-.588.797 0 1.499.194 2.105.581.61.383 1.08.941 1.408 1.675.329.73.493 1.58.493 2.55v.629zm-1.306-.643c0-1.18-.237-2.085-.711-2.714-.474-.633-1.137-.95-1.99-.95-.829 0-1.483.317-1.961.95-.474.63-.718 1.504-.732 2.625v.732c0 1.144.24 2.044.718 2.7.483.652 1.146.977 1.99.977.847 0 1.503-.307 1.968-.922.465-.62.704-1.507.718-2.66v-.738zm6.925 1.272h-2.338V18h-1.32V8.047h3.295c1.122 0 1.983.255 2.584.765.606.51.91 1.254.91 2.229 0 .62-.17 1.16-.506 1.62-.333.46-.798.805-1.395 1.032l2.338 4.225V18h-1.408l-2.16-4.026zM68.134 12.9h2.016c.652 0 1.17-.168 1.552-.505.388-.338.581-.789.581-1.354 0-.615-.184-1.087-.553-1.415-.365-.328-.894-.494-1.586-.499h-2.01V12.9zm12.94.5h-4.313v3.527h5.01V18h-6.323V8.047h6.255v1.08h-4.942v3.2h4.313v1.072z" fill="#fff"/><g clip-path="url(#bclip0)" fill-rule="evenodd" clip-rule="evenodd" fill="#fff"><path d="M112.575 8.84a.596.596 0 01.842 0l4.21 4.21a.597.597 0 010 .841l-4.21 4.21a.594.594 0 01-1.016-.42c0-.159.063-.31.174-.422l3.789-3.789-3.789-3.788a.598.598 0 010-.842z"/><path d="M117.802 13.47a.596.596 0 01-.596.597h-15.155a.595.595 0 010-1.193h15.155a.593.593 0 01.596.597z"/></g><defs><clipPath id="bclip0"><path fill="#fff" transform="rotate(45 55.236 133.35)" d="M0 0h19.05v19.05H0z"/></clipPath></defs></svg><svg fill="none" viewBox="0 0 53 53" id="arrow-l" xmlns="http://www.w3.org/2000/svg"><g filter="url(#cfilter0_d)"><circle cx="19.689" cy="24.686" r="15.5" transform="rotate(178.856 19.69 24.686)" fill="#fff"/></g><path d="M19.266 8.19c-9.06.182-16.256 7.672-16.075 16.732.18 9.059 7.671 16.256 16.73 16.075 9.06-.181 16.257-7.672 16.076-16.73-.181-9.06-7.672-16.257-16.731-16.076zm10.58 26.255A14.167 14.167 0 119.445 14.783a14.167 14.167 0 0120.403 19.662z" fill="#329B87" fill-opacity=".7"/><path d="M20.7 18.443l-1.577-1.516-7.614 7.925 7.924 7.614 1.516-1.577-5.232-5.027 12.81-.256-.043-2.187-12.81.256 5.027-5.232z" fill="#329B87" fill-opacity=".7"/><defs><filter id="cfilter0_d" x=".883" y=".879" width="51.613" height="51.613" filterUnits="userSpaceOnUse" color-interpolation-filters="sRGB"><feFlood flood-opacity="0" result="BackgroundImageFix"/><feColorMatrix in="SourceAlpha" values="0 0 0 0 0 0 0 0 0 0 0 0 0 0 0 0 0 0 127 0"/><feOffset dx="7" dy="2"/><feGaussianBlur stdDeviation="5"/><feColorMatrix values="0 0 0 0 0.196078 0 0 0 0 0.607843 0 0 0 0 0.529412 0 0 0 0.4 0"/><feBlend in2="BackgroundImageFix" result="effect1_dropShadow"/><feBlend in="SourceGraphic" in2="effect1_dropShadow" result="shape"/></filter></defs></svg><svg fill="none" viewBox="0 0 51 51" id="arrow-r" xmlns="http://www.w3.org/2000/svg"><g filter="url(#dfilter0_d)"><circle cx="18.5" cy="23.5" r="15.5" fill="#fff"/></g><path d="M18.594 40C27.654 40 35 32.655 35 23.594S27.655 7.187 18.594 7.187 2.187 14.534 2.187 23.595C2.188 32.654 9.534 40 18.595 40zM8.54 13.54a14.167 14.167 0 1120.005 20.066A14.167 14.167 0 018.54 13.54z" fill="#329B87" fill-opacity=".7"/><path d="M17.364 29.722l1.547 1.546 7.771-7.77-7.77-7.772-1.548 1.547 5.13 5.13H9.683v2.188h12.813l-5.13 5.13z" fill="#329B87" fill-opacity=".7"/><defs><filter id="dfilter0_d" x="0" y="0" width="51" height="51" filterUnits="userSpaceOnUse" color-interpolation-filters="sRGB"><feFlood flood-opacity="0" result="BackgroundImageFix"/><feColorMatrix in="SourceAlpha" values="0 0 0 0 0 0 0 0 0 0 0 0 0 0 0 0 0 0 127 0"/><feOffset dx="7" dy="2"/><feGaussianBlur stdDeviation="5"/><feColorMatrix values="0 0 0 0 0.196078 0 0 0 0 0.607843 0 0 0 0 0.529412 0 0 0 0.4 0"/><feBlend in2="BackgroundImageFix" result="effect1_dropShadow"/><feBlend in="SourceGraphic" in2="effect1_dropShadow" result="shape"/></filter></defs></svg><svg fill="none" viewBox="0 0 27 27" id="bi_arrow-up-right" xmlns="http://www.w3.org/2000/svg"><g clip-path="url(#eclip0)" fill-rule="evenodd" clip-rule="evenodd" fill="#fff"><path d="M15.575 8.84a.595.595 0 01.842 0l4.21 4.21a.595.595 0 010 .841l-4.21 4.21a.596.596 0 01-.842-.842l3.789-3.788-3.789-3.789a.595.595 0 010-.842z"/><path d="M20.802 13.47a.596.596 0 01-.596.597H5.05a.596.596 0 010-1.193h15.155a.594.594 0 01.596.597z"/></g><path stroke="#000" stroke-opacity=".6" d="M13.471.707l12.763 12.764-12.763 12.763L.708 13.47z"/><path transform="rotate(45 13.47 .707)" stroke="url(#epaint0_linear)" d="M13.471.707h18.05v18.05h-18.05z"/><path transform="rotate(45 13.47 .707)" stroke="url(#epaint1_linear)" d="M13.471.707h18.05v18.05h-18.05z"/><path transform="rotate(45 13.47 .707)" stroke="url(#epaint2_linear)" d="M13.471.707h18.05v18.05h-18.05z"/><defs><linearGradient id="epaint0_linear" x1="22.996" y1="0" x2="22.996" y2="19.05" gradientUnits="userSpaceOnUse"><stop stop-color="#fff"/><stop offset="1" stop-color="#fff" stop-opacity="0"/></linearGradient><linearGradient id="epaint1_linear" x1="22.996" y1="0" x2="22.996" y2="19.05" gradientUnits="userSpaceOnUse"><stop stop-color="#fff"/><stop offset="1" stop-color="#fff" stop-opacity="0"/></linearGradient><linearGradient id="epaint2_linear" x1="22.996" y1="0" x2="22.996" y2="19.05" gradientUnits="userSpaceOnUse"><stop stop-color="#fff"/><stop offset="1" stop-color="#fff" stop-opacity="0"/></linearGradient><clipPath id="eclip0"/></defs></svg><svg fill="none" viewBox="0 0 35 35" id="bi_arrow-up-right1" xmlns="http://www.w3.org/2000/svg"><g clip-path="url(#fclip0)" fill-rule="evenodd" clip-rule="evenodd" fill="#fff"><path d="M19.928 11.31a.762.762 0 011.078 0l5.386 5.387a.762.762 0 010 1.077l-5.386 5.386a.762.762 0 01-1.078-1.077l4.848-4.848-4.848-4.847a.762.762 0 010-1.077z"/><path d="M26.616 17.235a.762.762 0 01-.763.763H6.463a.763.763 0 010-1.525h19.39a.764.764 0 01.763.762z"/></g><defs><clipPath id="fclip0"><path fill="#fff" transform="rotate(45 8.618 20.805)" d="M0 0h24.374v24.374H0z"/></clipPath></defs></svg><svg fill="none" viewBox="0 0 184 163" id="logo" xmlns="http://www.w3.org/2000/svg"><path d="M11.831 149.185H6.914v13.605H4.907v-13.605H0v-1.656h11.831v1.656zM19.711 156.617h-3.593v6.173H14.09v-15.261h5.064c1.724 0 3.047.391 3.972 1.174.932.782 1.397 1.921 1.397 3.417 0 .95-.259 1.778-.777 2.484-.511.706-1.226 1.233-2.143 1.583l3.593 6.478v.125h-2.165l-3.32-6.173zm-3.593-1.646h3.1c1.001 0 1.796-.259 2.385-.776.595-.517.893-1.209.893-2.075 0-.944-.284-1.667-.851-2.17-.56-.503-1.373-.758-2.438-.765h-3.09v5.786zM35.808 158.807h-6.41l-1.439 3.983h-2.08l5.842-15.261h1.765l5.853 15.261h-2.07l-1.46-3.983zm-5.8-1.656h5.201l-2.606-7.138-2.595 7.138zM45.538 160.117l4.37-12.588h2.207l-5.674 15.261h-1.786l-5.663-15.261h2.196l4.35 12.588zM62.822 155.736h-6.63v5.409h7.702v1.645h-9.72v-15.261h9.614v1.656h-7.596v4.905h6.63v1.646zM68.433 161.145h7.25v1.645h-9.278v-15.261h2.028v13.616zM94.921 157.707c-.12 1.642-.729 2.935-1.828 3.878-1.093.943-2.536 1.415-4.33 1.415-1.96 0-3.505-.657-4.633-1.971-1.12-1.32-1.68-3.13-1.68-5.429v-.933c0-1.468.258-2.76.777-3.878.518-1.118 1.257-1.974 2.217-2.568.966-.601 2.087-.902 3.362-.902 1.765 0 3.187.472 4.266 1.415 1.078.944 1.702 2.268 1.87 3.973H91.79c-.077-.985-.354-1.698-.83-2.138-.47-.448-1.188-.671-2.154-.671-1.05 0-1.839.377-2.364 1.132-.519.747-.785 1.911-.799 3.49v1.153c0 1.649.249 2.855.746 3.616.505.762 1.296 1.143 2.375 1.143.974 0 1.699-.22 2.175-.66.483-.448.76-1.136.83-2.065h3.152zM109.557 155.505c0 1.503-.266 2.82-.798 3.952-.533 1.132-1.296 2.006-2.291 2.621-.987.615-2.122.922-3.404.922-1.268 0-2.399-.304-3.394-.912-.995-.608-1.765-1.474-2.311-2.599-.547-1.132-.823-2.432-.83-3.9v-.754c0-1.503.27-2.823.809-3.963.546-1.146 1.313-2.023 2.3-2.63.995-.615 2.13-.923 3.405-.923s2.406.308 3.394.923c.994.607 1.761 1.484 2.301 2.63.546 1.14.819 2.457.819 3.952v.681zm-3.194-.691c0-1.601-.287-2.816-.861-3.648-.575-.832-1.394-1.247-2.459-1.247-1.058 0-1.874.412-2.448 1.237-.575.817-.865 2.019-.872 3.605v.744c0 1.559.287 2.768.861 3.627.575.86 1.401 1.289 2.48 1.289 1.058 0 1.87-.412 2.438-1.236.567-.832.854-2.041.861-3.627v-.744zM115.967 147.529l3.929 11.069 3.909-11.069h4.14v15.261h-3.163v-4.171l.315-7.201-4.129 11.372h-2.164l-4.119-11.362.315 7.191v4.171h-3.152v-15.261h4.119zM133.85 157.413v5.377h-3.152v-15.261h5.968c1.148 0 2.157.209 3.026.629.875.419 1.548 1.016 2.017 1.792.469.769.704 1.646.704 2.631 0 1.495-.515 2.676-1.545 3.543-1.022.859-2.441 1.289-4.255 1.289h-2.763zm0-2.547h2.816c.833 0 1.467-.196 1.901-.587.442-.391.662-.95.662-1.677 0-.748-.22-1.352-.662-1.813-.441-.462-1.05-.699-1.828-.713h-2.889v4.79zM151.355 159.646h-5.527l-1.051 3.144h-3.352l5.695-15.261h2.921l5.726 15.261h-3.351l-1.061-3.144zm-4.676-2.547h3.824l-1.922-5.713-1.902 5.713zM169.637 162.79h-3.152l-6.136-10.041v10.041h-3.153v-15.261h3.153l6.146 10.062v-10.062h3.142v15.261zM177.37 154.405l3.184-6.876H184l-5.022 9.727v5.534h-3.205v-5.534l-5.022-9.727h3.456l3.163 6.876zM136.431 81.973a5.702 5.702 0 00.252-1.683c0-3.226-2.601-5.835-5.818-5.835-.559 0-1.118.084-1.65.224-1.762-2.413-4.531-3.815-7.552-3.815-4.307 0-7.971 2.89-9.062 6.985-3.692.056-6.657 3.086-6.657 6.817 0 3.76 3.049 6.817 6.797 6.817a6.543 6.543 0 002.937-.673 8.413 8.413 0 006.908 3.59 8.43 8.43 0 005.287-1.85c.839.336 1.706.476 2.601.476 3.915 0 7.104-3.198 7.104-7.126 0-1.43-.392-2.749-1.147-3.927zM108.546 71.677c.335-1.543-5.426-18.964-5.315-19.441.839-.59 4.336-3.843 4.336-4.348 0-.505-2.294-2.778-2.713-2.721-.42.056-2.35 2.132-2.825 2.777-.42 0-1.539-5.948-1.091-6.396.447-.45 5.314-4.938 8.363-8.024 2.545-2.609 3.104-6.705 2.741-7.07-.364-.364-4.447.197-7.049 2.75-3.104 3.058-7.551 7.94-7.999 8.388-.447.449-6.377-.673-6.377-1.094.615-.477 2.685-2.413 2.741-2.834.056-.42-2.21-2.72-2.713-2.72-.503 0-3.748 3.506-4.335 4.348-.476.112-17.845-5.64-19.383-5.33-1.538.336-3.384 1.739-2.965 2.16.42.42 13.817 6.452 16.139 7.939 2.321 1.487 6.796 5.779 6.796 6.312 0 .533-11.97 13.999-12.67 14.56-.7.56-5.846-1.936-7.86-1.655-2.013.28-3.552 1.767-3.44 2.244.112.477 7.888 3.927 7.496 4.6-.308.534-2.49 4.012-2.237 4.265.251.252 3.747-1.936 4.25-2.245.672-.392 4.14 7.379 4.588 7.519.475.112 1.958-1.43 2.21-3.45.28-2.02-2.21-7.183-1.65-7.884.559-.701 14.012-12.708 14.516-12.708.53 0 4.81 4.488 6.293 6.817 1.482 2.328 7.496 15.766 7.915 16.187.531.449 1.93-1.403 2.238-2.946z" fill="#fff"/><path d="M101.022 66.543c-6.042-.28-11.608-3.03-15.523-7.518-.616.533-1.203 1.066-1.79 1.571a24.255 24.255 0 0018.32 8.332h.112c-.336-.757-.728-1.571-1.119-2.385z" fill="#fff"/><path d="M142.78 32.795c.644-1.768.979-3.62.979-5.527 0-8.92-7.216-16.159-16.11-16.159-1.986 0-3.944.365-5.79 1.066C116.797 4.545 108.406 0 99.204 0c-12.95 0-23.942 9.005-26.6 21.601-.363-.028-.727-.028-1.062-.028-10.545 0-19.131 8.613-19.131 19.19 0 8.022 4.922 14.896 11.915 17.757a7.347 7.347 0 011.93-.589c.168-.028.335-.028.531-.028 1.287 0 3.02.561 4.671 1.094.755.252 1.734.561 2.238.645.475-.477 1.37-1.487 2.489-2.749-1.51.42-3.049.673-4.643.673-9.23 0-16.754-7.546-16.754-16.804s7.524-16.804 16.754-16.804c.615 0 1.258.028 1.902.112l1.119.14.195-1.122C76.8 11.11 87.065 2.385 99.204 2.385c8.698 0 16.614 4.46 21.173 11.922l.559.898.951-.449a13.584 13.584 0 015.762-1.262c7.58 0 13.733 6.172 13.733 13.774 0 1.824-.336 3.591-1.035 5.246l-.252.645.42.534a17.634 17.634 0 013.664 10.828c0 9.82-7.971 17.814-17.761 17.814-2.825 0-5.51-.645-7.999-1.907l-.755-.365-.616.561c-2.461 2.3-5.342 3.984-8.502 4.938.251.87.447 1.655.643 2.3 3.244-1.01 6.265-2.665 8.866-4.965a19.829 19.829 0 008.335 1.823c11.104 0 20.138-9.061 20.138-20.199 0-4.236-1.286-8.276-3.748-11.726zM89.666 109.41c-1.174 1.094-2.88 2.721-5.202 4.628a92.313 92.313 0 01-8.699 6.397 81.933 81.933 0 01-5.733 3.338 54.157 54.157 0 01-6.685 2.974c-.616.196-1.203.449-1.818.617-.308.084-.616.196-.923.28-.308.085-.644.169-.951.253a29.212 29.212 0 01-3.916.785c-.335.028-.671.085-1.007.113-.335.028-.671.028-1.007.056-.335.028-.67 0-1.007.028h-.503l-.504-.028c-1.342-.084-2.712-.337-3.943-.87l-.448-.196-.224-.113c-.083-.028-.14-.084-.223-.112l-.42-.252c-.056-.056-.14-.084-.196-.14l-.195-.141-.364-.28-.084-.056-.112-.085-.196-.196-.419-.393-.028-.056-.084-.084-.168-.196c-.839-1.01-1.398-2.245-1.706-3.619-.308-1.347-.364-2.806-.224-4.264.112-1.459.42-2.946.784-4.433.391-1.487.895-2.946 1.482-4.432a54.917 54.917 0 011.986-4.349c1.454-2.861 3.16-5.667 5.006-8.388.951-1.346 1.902-2.693 2.91-4.011l.754-.982.783-.982c.504-.645 1.063-1.29 1.595-1.936a106.395 106.395 0 013.3-3.787c.56-.617 1.147-1.207 1.706-1.824l1.79-1.823 1.79-1.74c.616-.56 1.203-1.15 1.846-1.739 1.231-1.122 2.49-2.244 3.776-3.338.392-.337.811-.674 1.203-1.01-.979-1.88-1.986-3.62-2.294-3.45-.167.111-.727.448-1.37.813-.112.084-.196.168-.308.252-.671.533-1.342 1.122-2.014 1.684-.67.56-1.314 1.15-1.957 1.739a112.58 112.58 0 00-1.93 1.795l-1.902 1.852-1.79 1.851c-.588.646-1.203 1.29-1.79 1.936a77.415 77.415 0 00-3.413 3.984c-.559.673-1.09 1.346-1.622 2.048l-.783 1.038-.783 1.066c-1.035 1.402-1.986 2.861-2.937 4.292-.447.73-.923 1.459-1.37 2.216-.42.758-.867 1.487-1.287 2.244a64.016 64.016 0 00-2.294 4.601c-.67 1.571-1.314 3.142-1.873 4.741-.532 1.599-1.007 3.226-1.343 4.882-.336 1.655-.56 3.338-.587 5.021-.028 1.683.14 3.395.615 5.05.475 1.655 1.314 3.226 2.49 4.46l.39.393s.14.112.113.084l.447.365.336.253.14.084.559.364c.727.477 1.454.786 2.238 1.066 1.538.533 3.076.702 4.587.702h.559l.56-.028c.363-.028.727-.028 1.09-.084.364-.057.727-.085 1.091-.141.364-.056.7-.14 1.063-.196 1.398-.281 2.74-.617 4.027-1.066.336-.112.644-.196.951-.309.308-.112.616-.224.951-.336.616-.225 1.231-.505 1.818-.73 4.755-2.076 8.81-4.572 12.251-6.929a100.555 100.555 0 008.559-6.621 80.766 80.766 0 005.09-4.6z" fill="#fff"/><path d="M80.1 109.662a92.143 92.143 0 01-8.698 6.396 81.933 81.933 0 01-5.734 3.339 54.004 54.004 0 01-6.684 2.973c-.616.197-1.203.449-1.818.618-.308.084-.616.196-.923.28-.308.084-.644.168-.951.253a34.614 34.614 0 01-3.916.813c-.336.028-.671.084-1.007.112-.336.028-.671.028-1.007.056-.336.028-.671 0-1.007.028h-.503l-.504-.028c-1.342-.084-2.713-.336-3.943-.869l-.448-.197-.224-.112c-.084-.028-.14-.084-.223-.112l-.42-.253c-.056-.056-.14-.084-.196-.14l-.196-.14-.363-.281-.084-.056-.112-.084-.196-.196-.42-.393-.027-.056-.084-.084-.168-.197c-.84-1.01-1.398-2.244-1.706-3.619-.308-1.346-.364-2.805-.224-4.264.112-1.459.42-2.945.783-4.432.392-1.487.895-2.946 1.483-4.433a54.898 54.898 0 011.986-4.348c1.454-2.862 3.16-5.667 5.006-8.388.951-1.347 1.902-2.693 2.909-4.012l.755-.982.783-.982c.504-.645 1.063-1.29 1.594-1.935a106.595 106.595 0 013.3-3.787c.56-.618 1.148-1.207 1.707-1.824l1.79-1.823 1.79-1.74c.615-.589 1.203-1.15 1.846-1.74 1.23-1.121 2.49-2.243 3.776-3.338 0 0 .028 0 .028-.028.531-.925 1.09-1.823 1.23-2.076.168-.308-1.314-1.178-3.02-2.104-.336.28-.671.533-1.007.814-.671.533-1.343 1.122-2.014 1.683-.671.561-1.314 1.15-1.958 1.74-.643.589-1.286 1.178-1.93 1.795L57.25 73.36l-1.79 1.851c-.587.645-1.202 1.29-1.79 1.936a77.42 77.42 0 00-3.412 3.983c-.56.674-1.09 1.347-1.622 2.048l-.783 1.038-.783 1.066c-1.035 1.403-1.986 2.862-2.937 4.293-.448.729-.923 1.458-1.37 2.216-.42.757-.868 1.487-1.26 2.244a64.02 64.02 0 00-2.293 4.6c-.671 1.572-1.314 3.143-1.874 4.742a34.807 34.807 0 00-1.398 4.909c-.336 1.656-.56 3.339-.588 5.022-.028 1.683.14 3.394.616 5.05.475 1.655 1.314 3.226 2.489 4.46l.392.393s.14.112.111.084l.448.365.335.252.14.084.56.365c.727.477 1.454.786 2.237 1.066 1.539.533 3.077.702 4.587.702h.56l.56-.029c.363-.028.726-.028 1.09-.084.364-.056.727-.084 1.09-.14.364-.056.7-.14 1.064-.196 1.398-.281 2.74-.618 4.027-1.066.336-.113.643-.197.951-.309.308-.112.615-.224.951-.337.615-.224 1.23-.505 1.818-.729 4.755-2.076 8.81-4.573 12.25-6.929a100.543 100.543 0 008.56-6.621c.14-.14.28-.252.447-.365l-.056-.056c-.196.141-.336.281-.475.393z" fill="#fff"/></svg><svg fill="none" viewBox="0 0 126 41" id="philippines" xmlns="http://www.w3.org/2000/svg"><path d="M0 0h106c11.046 0 20 8.954 20 20v1c0 11.046-8.954 20-20 20H0V0z" fill="#329B87"/></svg><svg fill="none" viewBox="0 0 27 27" id="raphael_clip" xmlns="http://www.w3.org/2000/svg"><path d="M20.164 5.176a2.954 2.954 0 00-4.121.682L8.591 16.26a2.109 2.109 0 103.429 2.456l5.262-7.345-.686-.492-5.261 7.346a1.267 1.267 0 01-2.276-.53c-.055-.331.024-.67.22-.944l7.45-10.403h.002l-.002-.002a2.114 2.114 0 012.945-.486 2.115 2.115 0 01.486 2.945v-.002l-8.168 11.404a2.958 2.958 0 01-4.12.684 2.96 2.96 0 01-.682-4.123l5.936-8.287-.686-.491-5.936 8.287a3.795 3.795 0 002.227 5.908 3.793 3.793 0 003.947-1.486l8.168-11.404a2.954 2.954 0 00-.684-4.12h.002z" fill="#fff"/></svg><svg fill="none" viewBox="0 0 17 17" id="tour-arrow" xmlns="http://www.w3.org/2000/svg"><path d="M4.776 5.467L8.493 9.25l3.783-3.717 1.494.763L8.474 11.5 3.27 6.204l1.506-.737z" fill="#fff"/></svg></svg>