<svg width="124" height="27" viewBox="0 0 124 27" fill="none" xmlns="http://www.w3.org/2000/svg"><path d="M4.088 13.563c-1.126-.323-1.946-.72-2.461-1.189a2.294 2.294 0 01-.766-1.75c0-.784.313-1.431.937-1.941.629-.515 1.445-.773 2.447-.773.684 0 1.292.132 1.825.397.538.264.953.629 1.244 1.093.297.465.445.973.445 1.525h-1.32c0-.602-.19-1.073-.574-1.415-.383-.347-.923-.52-1.62-.52-.647 0-1.153.144-1.517.43-.36.283-.54.678-.54 1.184 0 .405.17.75.512 1.032.347.278.932.533 1.757.765.83.233 1.477.49 1.941.773.47.278.816.604 1.04.977.227.374.341.814.341 1.32 0 .806-.314 1.453-.943 1.941-.629.483-1.47.725-2.523.725-.683 0-1.321-.13-1.914-.39-.592-.264-1.05-.624-1.374-1.08a2.64 2.64 0 01-.478-1.552h1.32c0 .602.22 1.078.662 1.429.447.346 1.042.52 1.784.52.693 0 1.224-.142 1.593-.424.37-.283.554-.668.554-1.156 0-.487-.17-.863-.513-1.128-.342-.268-.961-.533-1.86-.793zM17.118 18h-1.32v-4.6H10.78V18H9.468V8.047h1.312v4.28h5.018v-4.28h1.32V18zm9.987-4.655c0 .975-.165 1.827-.493 2.556-.328.725-.793 1.279-1.394 1.662-.602.382-1.304.574-2.106.574-.784 0-1.478-.192-2.085-.575-.606-.387-1.078-.936-1.415-1.647-.332-.715-.503-1.543-.512-2.481v-.718c0-.957.166-1.803.499-2.536.332-.734.802-1.295 1.408-1.682.61-.392 1.308-.588 2.092-.588.797 0 1.499.194 2.105.581.61.383 1.08.941 1.408 1.675.328.73.493 1.58.493 2.55v.629zm-1.306-.643c0-1.18-.237-2.085-.711-2.714-.474-.633-1.137-.95-1.99-.95-.829 0-1.483.317-1.961.95-.474.63-.718 1.504-.732 2.625v.732c0 1.144.24 2.044.718 2.7.483.652 1.146.977 1.99.977.847 0 1.503-.307 1.968-.922.465-.62.704-1.507.718-2.66v-.738zm5.42 2.16l.192 1.313.28-1.183 1.97-6.945h1.107l1.92 6.945.274 1.203.212-1.34 1.545-6.808h1.32L37.624 18h-1.196l-2.051-7.253-.157-.759-.157.76L31.936 18H30.74l-2.406-9.953h1.313l1.572 6.815zm15.45-6.815l3.254 8.121 3.254-8.121h1.702V18h-1.313v-3.876l.123-4.184L50.422 18h-1.005l-3.26-8.04.13 4.164V18h-1.313V8.047h1.695zm18.184 5.298c0 .975-.164 1.827-.493 2.556-.328.725-.793 1.279-1.394 1.662-.602.382-1.304.574-2.106.574-.783 0-1.478-.192-2.085-.575-.606-.387-1.077-.936-1.415-1.647-.332-.715-.503-1.543-.512-2.481v-.718c0-.957.166-1.803.499-2.536.332-.734.802-1.295 1.408-1.682.61-.392 1.308-.588 2.092-.588.797 0 1.499.194 2.105.581.61.383 1.08.941 1.408 1.675.329.73.493 1.58.493 2.55v.629zm-1.306-.643c0-1.18-.237-2.085-.711-2.714-.474-.633-1.137-.95-1.99-.95-.829 0-1.483.317-1.961.95-.474.63-.718 1.504-.732 2.625v.732c0 1.144.24 2.044.718 2.7.483.652 1.146.977 1.99.977.847 0 1.503-.307 1.968-.922.465-.62.704-1.507.718-2.66v-.738zm6.925 1.272h-2.338V18h-1.32V8.047h3.295c1.122 0 1.983.255 2.584.765.606.51.91 1.254.91 2.229 0 .62-.17 1.16-.506 1.62-.333.46-.798.805-1.395 1.032l2.338 4.225V18h-1.408l-2.16-4.026zM68.134 12.9h2.016c.652 0 1.17-.168 1.552-.505.388-.338.581-.789.581-1.354 0-.615-.184-1.087-.553-1.415-.365-.328-.894-.494-1.586-.499h-2.01V12.9zm12.94.5h-4.313v3.527h5.01V18h-6.323V8.047h6.255v1.08h-4.942v3.2h4.313v1.072z" fill="#fff"/><g clip-path="url(#clip0)" fill-rule="evenodd" clip-rule="evenodd" fill="#fff"><path d="M112.575 8.84a.596.596 0 01.842 0l4.21 4.21a.597.597 0 010 .841l-4.21 4.21a.594.594 0 01-1.016-.42c0-.159.063-.31.174-.422l3.789-3.789-3.789-3.788a.598.598 0 010-.842z"/><path d="M117.802 13.47a.596.596 0 01-.596.597h-15.155a.595.595 0 010-1.193h15.155a.593.593 0 01.596.597z"/></g><defs><clipPath id="clip0"><path fill="#fff" transform="rotate(45 55.236 133.35)" d="M0 0h19.05v19.05H0z"/></clipPath></defs></svg>