<svg width="51" height="51" viewBox="0 0 51 51" fill="none" xmlns="http://www.w3.org/2000/svg"><g filter="url(#filter0_d)"><circle cx="18.5" cy="23.5" r="15.5" fill="#fff"/></g><path d="M18.594 40C27.654 40 35 32.655 35 23.594S27.655 7.187 18.594 7.187 2.187 14.534 2.187 23.595C2.188 32.654 9.534 40 18.595 40zM8.54 13.54a14.167 14.167 0 1120.005 20.066A14.167 14.167 0 018.54 13.54z" fill="#329B87" fill-opacity=".7"/><path d="M17.364 29.722l1.547 1.546 7.771-7.77-7.77-7.772-1.548 1.547 5.13 5.13H9.683v2.188h12.813l-5.13 5.13z" fill="#329B87" fill-opacity=".7"/><defs><filter id="filter0_d" x="0" y="0" width="51" height="51" filterUnits="userSpaceOnUse" color-interpolation-filters="sRGB"><feFlood flood-opacity="0" result="BackgroundImageFix"/><feColorMatrix in="SourceAlpha" values="0 0 0 0 0 0 0 0 0 0 0 0 0 0 0 0 0 0 127 0"/><feOffset dx="7" dy="2"/><feGaussianBlur stdDeviation="5"/><feColorMatrix values="0 0 0 0 0.196078 0 0 0 0 0.607843 0 0 0 0 0.529412 0 0 0 0.4 0"/><feBlend in2="BackgroundImageFix" result="effect1_dropShadow"/><feBlend in="SourceGraphic" in2="effect1_dropShadow" result="shape"/></filter></defs></svg>