<svg width="53" height="53" viewBox="0 0 53 53" fill="none" xmlns="http://www.w3.org/2000/svg"><g filter="url(#filter0_d)"><circle cx="19.689" cy="24.686" r="15.5" transform="rotate(178.856 19.69 24.686)" fill="#fff"/></g><path d="M19.266 8.19c-9.06.182-16.256 7.672-16.075 16.732.18 9.059 7.671 16.256 16.73 16.075 9.06-.181 16.257-7.672 16.076-16.73-.181-9.06-7.672-16.257-16.731-16.076zm10.58 26.255A14.167 14.167 0 119.445 14.783a14.167 14.167 0 0120.403 19.662z" fill="#329B87" fill-opacity=".7"/><path d="M20.7 18.443l-1.577-1.516-7.614 7.925 7.924 7.614 1.516-1.577-5.232-5.027 12.81-.256-.043-2.187-12.81.256 5.027-5.232z" fill="#329B87" fill-opacity=".7"/><defs><filter id="filter0_d" x=".883" y=".879" width="51.613" height="51.613" filterUnits="userSpaceOnUse" color-interpolation-filters="sRGB"><feFlood flood-opacity="0" result="BackgroundImageFix"/><feColorMatrix in="SourceAlpha" values="0 0 0 0 0 0 0 0 0 0 0 0 0 0 0 0 0 0 127 0"/><feOffset dx="7" dy="2"/><feGaussianBlur stdDeviation="5"/><feColorMatrix values="0 0 0 0 0.196078 0 0 0 0 0.607843 0 0 0 0 0.529412 0 0 0 0.4 0"/><feBlend in2="BackgroundImageFix" result="effect1_dropShadow"/><feBlend in="SourceGraphic" in2="effect1_dropShadow" result="shape"/></filter></defs></svg>