<svg width="184" height="163" viewBox="0 0 184 163" fill="none" xmlns="http://www.w3.org/2000/svg"><path d="M11.831 149.185H6.914v13.605H4.907v-13.605H0v-1.656h11.831v1.656zm7.88 7.432h-3.593v6.173H14.09v-15.261h5.064c1.724 0 3.047.391 3.972 1.174.932.782 1.397 1.921 1.397 3.417 0 .95-.259 1.778-.777 2.484-.511.706-1.226 1.233-2.143 1.583l3.593 6.478v.125h-2.165l-3.32-6.173zm-3.593-1.646h3.1c1.001 0 1.796-.259 2.385-.776.595-.517.893-1.209.893-2.075 0-.944-.284-1.667-.851-2.17-.56-.503-1.373-.758-2.438-.765h-3.09v5.786zm19.69 3.836h-6.41l-1.439 3.983h-2.08l5.842-15.261h1.765l5.853 15.261h-2.07l-1.46-3.983zm-5.8-1.656h5.201l-2.606-7.138-2.595 7.138zm15.53 2.966l4.37-12.588h2.207l-5.674 15.261h-1.786l-5.663-15.261h2.196l4.35 12.588zm17.284-4.381h-6.63v5.409h7.702v1.645h-9.72v-15.261h9.614v1.656h-7.596v4.905h6.63v1.646zm5.611 5.409h7.25v1.645h-9.278v-15.261h2.028v13.616zm26.488-3.438c-.12 1.642-.729 2.935-1.828 3.878-1.093.943-2.536 1.415-4.33 1.415-1.96 0-3.505-.657-4.633-1.971-1.12-1.32-1.68-3.13-1.68-5.429v-.933c0-1.468.258-2.76.777-3.878.518-1.118 1.257-1.974 2.217-2.568.966-.601 2.087-.902 3.362-.902 1.765 0 3.187.472 4.266 1.415 1.078.944 1.702 2.268 1.87 3.973H91.79c-.077-.985-.354-1.698-.83-2.138-.47-.448-1.188-.671-2.154-.671-1.05 0-1.839.377-2.364 1.132-.519.747-.785 1.911-.799 3.49v1.153c0 1.649.249 2.855.746 3.616.505.762 1.296 1.143 2.375 1.143.974 0 1.699-.22 2.175-.66.483-.448.76-1.136.83-2.065h3.152zm14.636-2.202c0 1.503-.266 2.82-.798 3.952-.533 1.132-1.296 2.006-2.291 2.621-.987.615-2.122.922-3.404.922-1.268 0-2.399-.304-3.394-.912-.995-.608-1.765-1.474-2.311-2.599-.547-1.132-.823-2.432-.83-3.9v-.754c0-1.503.27-2.823.809-3.963.546-1.146 1.313-2.023 2.3-2.63.995-.615 2.13-.923 3.405-.923s2.406.308 3.394.923c.994.607 1.761 1.484 2.301 2.63.546 1.14.819 2.457.819 3.952v.681zm-3.194-.691c0-1.601-.287-2.816-.861-3.648-.575-.832-1.394-1.247-2.459-1.247-1.058 0-1.874.412-2.448 1.237-.575.817-.865 2.019-.872 3.605v.744c0 1.559.287 2.768.861 3.627.575.86 1.401 1.289 2.48 1.289 1.058 0 1.87-.412 2.438-1.236.567-.832.854-2.041.861-3.627v-.744zm9.604-7.285l3.929 11.069 3.909-11.069h4.14v15.261h-3.163v-4.171l.315-7.201-4.129 11.372h-2.164l-4.119-11.362.315 7.191v4.171h-3.152v-15.261h4.119zm17.883 9.884v5.377h-3.152v-15.261h5.968c1.148 0 2.157.209 3.026.629.875.419 1.548 1.016 2.017 1.792.469.769.704 1.646.704 2.631 0 1.495-.515 2.676-1.545 3.543-1.022.859-2.441 1.289-4.255 1.289h-2.763zm0-2.547h2.816c.833 0 1.467-.196 1.901-.587.442-.391.662-.95.662-1.677 0-.748-.22-1.352-.662-1.813-.441-.462-1.05-.699-1.828-.713h-2.889v4.79zm17.505 4.78h-5.527l-1.051 3.144h-3.352l5.695-15.261h2.921l5.726 15.261h-3.351l-1.061-3.144zm-4.676-2.547h3.824l-1.922-5.713-1.902 5.713zm22.958 5.691h-3.152l-6.136-10.041v10.041h-3.153v-15.261h3.153l6.146 10.062v-10.062h3.142v15.261zm7.733-8.385l3.184-6.876H184l-5.022 9.727v5.534h-3.205v-5.534l-5.022-9.727h3.456l3.163 6.876zm-40.939-72.432a5.702 5.702 0 00.252-1.683c0-3.226-2.601-5.835-5.818-5.835-.559 0-1.118.084-1.65.224-1.762-2.413-4.531-3.815-7.552-3.815-4.307 0-7.971 2.89-9.062 6.985-3.692.056-6.657 3.086-6.657 6.817 0 3.76 3.049 6.817 6.797 6.817a6.543 6.543 0 002.937-.673 8.413 8.413 0 006.908 3.59 8.43 8.43 0 005.287-1.85c.839.336 1.706.476 2.601.476 3.915 0 7.104-3.198 7.104-7.126 0-1.43-.392-2.749-1.147-3.927zm-27.885-10.296c.335-1.543-5.426-18.964-5.315-19.441.839-.59 4.336-3.843 4.336-4.348 0-.505-2.294-2.778-2.713-2.721-.42.056-2.35 2.132-2.825 2.777-.42 0-1.539-5.948-1.091-6.396.447-.45 5.314-4.938 8.363-8.024 2.545-2.609 3.104-6.705 2.741-7.07-.364-.364-4.447.197-7.049 2.75-3.104 3.058-7.551 7.94-7.999 8.388-.447.449-6.377-.673-6.377-1.094.615-.477 2.685-2.413 2.741-2.834.056-.42-2.21-2.72-2.713-2.72-.503 0-3.748 3.506-4.335 4.348-.476.112-17.845-5.64-19.383-5.33-1.538.336-3.384 1.739-2.965 2.16.42.42 13.817 6.452 16.139 7.939 2.321 1.487 6.796 5.779 6.796 6.312 0 .533-11.97 13.999-12.67 14.56-.7.56-5.846-1.936-7.86-1.655-2.013.28-3.552 1.767-3.44 2.244.112.477 7.888 3.927 7.496 4.6-.308.534-2.49 4.012-2.237 4.265.251.252 3.747-1.936 4.25-2.245.672-.392 4.14 7.379 4.588 7.519.475.112 1.958-1.43 2.21-3.45.28-2.02-2.21-7.183-1.65-7.884.559-.701 14.012-12.708 14.516-12.708.53 0 4.81 4.488 6.293 6.817 1.482 2.328 7.496 15.766 7.915 16.187.531.449 1.93-1.403 2.238-2.946z" fill="#fff"/><path d="M101.022 66.543c-6.042-.28-11.608-3.03-15.523-7.518-.616.533-1.203 1.066-1.79 1.571a24.255 24.255 0 0018.32 8.332h.112c-.336-.757-.728-1.571-1.119-2.385z" fill="#fff"/><path d="M142.78 32.795c.644-1.768.979-3.62.979-5.527 0-8.92-7.216-16.159-16.11-16.159-1.986 0-3.944.365-5.79 1.066C116.797 4.545 108.406 0 99.204 0c-12.95 0-23.942 9.005-26.6 21.601-.363-.028-.727-.028-1.062-.028-10.545 0-19.131 8.613-19.131 19.19 0 8.022 4.922 14.896 11.915 17.757a7.347 7.347 0 011.93-.589c.168-.028.335-.028.531-.028 1.287 0 3.02.561 4.671 1.094.755.252 1.734.561 2.238.645.475-.477 1.37-1.487 2.489-2.749-1.51.42-3.049.673-4.643.673-9.23 0-16.754-7.546-16.754-16.804s7.524-16.804 16.754-16.804c.615 0 1.258.028 1.902.112l1.119.14.195-1.122C76.8 11.11 87.065 2.385 99.204 2.385c8.698 0 16.614 4.46 21.173 11.922l.559.898.951-.449a13.584 13.584 0 015.762-1.262c7.58 0 13.733 6.172 13.733 13.774 0 1.824-.336 3.591-1.035 5.246l-.252.645.42.534a17.634 17.634 0 013.664 10.828c0 9.82-7.971 17.814-17.761 17.814a17.51 17.51 0 01-7.999-1.907l-.755-.365-.616.561c-2.461 2.3-5.342 3.984-8.502 4.938.251.87.447 1.655.643 2.3 3.244-1.01 6.265-2.665 8.866-4.965a19.829 19.829 0 008.335 1.823c11.104 0 20.138-9.061 20.138-20.199a20.03 20.03 0 00-3.748-11.726zM89.666 109.41c-1.174 1.094-2.88 2.721-5.202 4.628a92.313 92.313 0 01-8.699 6.397 81.933 81.933 0 01-5.733 3.338 54.157 54.157 0 01-6.685 2.974c-.616.196-1.203.449-1.818.617-.308.084-.616.196-.923.28-.308.085-.644.169-.951.253a29.212 29.212 0 01-3.916.785c-.335.028-.671.085-1.007.113-.335.028-.671.028-1.007.056-.335.028-.67 0-1.007.028h-.503l-.504-.028c-1.342-.084-2.712-.337-3.943-.87l-.448-.196-.224-.113c-.083-.028-.14-.084-.223-.112l-.42-.252c-.056-.056-.14-.084-.196-.14l-.195-.141-.364-.28-.084-.056-.112-.085-.196-.196-.419-.393-.028-.056-.084-.084-.168-.196c-.839-1.01-1.398-2.245-1.706-3.619-.308-1.347-.364-2.806-.224-4.264.112-1.459.42-2.946.784-4.433.391-1.487.895-2.946 1.482-4.432a54.917 54.917 0 011.986-4.349c1.454-2.861 3.16-5.667 5.006-8.388.951-1.346 1.902-2.693 2.91-4.011l.754-.982.783-.982c.504-.645 1.063-1.29 1.595-1.936a106.395 106.395 0 013.3-3.787c.56-.617 1.147-1.207 1.706-1.824l1.79-1.823 1.79-1.74c.616-.56 1.203-1.15 1.846-1.739a147.5 147.5 0 013.776-3.338c.392-.337.811-.674 1.203-1.01-.979-1.88-1.986-3.62-2.294-3.45a32.33 32.33 0 01-1.37.813c-.112.084-.196.168-.308.252-.671.533-1.342 1.122-2.014 1.684-.67.56-1.314 1.15-1.957 1.739a112.58 112.58 0 00-1.93 1.795l-1.902 1.852-1.79 1.851c-.588.646-1.203 1.29-1.79 1.936a77.415 77.415 0 00-3.413 3.984 58.088 58.088 0 00-1.622 2.048l-.783 1.038-.783 1.066c-1.035 1.402-1.986 2.861-2.937 4.292-.447.73-.923 1.459-1.37 2.216-.42.758-.867 1.487-1.287 2.244a64.016 64.016 0 00-2.294 4.601c-.67 1.571-1.314 3.142-1.873 4.741-.532 1.599-1.007 3.226-1.343 4.882-.336 1.655-.56 3.338-.587 5.021-.028 1.683.14 3.395.615 5.05.475 1.655 1.314 3.226 2.49 4.46l.39.393s.14.112.113.084l.447.365.336.253.14.084.559.364c.727.477 1.454.786 2.238 1.066 1.538.533 3.076.702 4.587.702h.559l.56-.028c.363-.028.727-.028 1.09-.084.364-.057.727-.085 1.091-.141.364-.056.7-.14 1.063-.196 1.398-.281 2.74-.617 4.027-1.066.336-.112.644-.196.951-.309.308-.112.616-.224.951-.336.616-.225 1.231-.505 1.818-.73 4.755-2.076 8.81-4.572 12.251-6.929a100.555 100.555 0 008.559-6.621 80.766 80.766 0 005.09-4.6z" fill="#fff"/><path d="M80.1 109.662a92.143 92.143 0 01-8.698 6.396 81.933 81.933 0 01-5.734 3.339 54.004 54.004 0 01-6.684 2.973c-.616.197-1.203.449-1.818.618-.308.084-.616.196-.923.28-.308.084-.644.168-.951.253a34.614 34.614 0 01-3.916.813c-.336.028-.671.084-1.007.112-.336.028-.671.028-1.007.056-.336.028-.671 0-1.007.028h-.503l-.504-.028c-1.342-.084-2.713-.336-3.943-.869l-.448-.197-.224-.112c-.084-.028-.14-.084-.223-.112l-.42-.253c-.056-.056-.14-.084-.196-.14l-.196-.14-.363-.281-.084-.056-.112-.084-.196-.196-.42-.393-.027-.056-.084-.084-.168-.197c-.84-1.01-1.398-2.244-1.706-3.619-.308-1.346-.364-2.805-.224-4.264.112-1.459.42-2.945.783-4.432.392-1.487.895-2.946 1.483-4.433a54.898 54.898 0 011.986-4.348c1.454-2.862 3.16-5.667 5.006-8.388.951-1.347 1.902-2.693 2.909-4.012l.755-.982.783-.982c.504-.645 1.063-1.29 1.594-1.935a106.595 106.595 0 013.3-3.787c.56-.618 1.148-1.207 1.707-1.824l1.79-1.823 1.79-1.74a116.09 116.09 0 011.846-1.74 149.68 149.68 0 013.776-3.338s.028 0 .028-.028c.531-.925 1.09-1.823 1.23-2.076.168-.308-1.314-1.178-3.02-2.104-.336.28-.671.533-1.007.814-.671.533-1.343 1.122-2.014 1.683a57.745 57.745 0 00-1.958 1.74c-.643.589-1.286 1.178-1.93 1.795L57.25 73.36l-1.79 1.851c-.587.645-1.202 1.29-1.79 1.936a77.42 77.42 0 00-3.412 3.983c-.56.674-1.09 1.347-1.622 2.048l-.783 1.038-.783 1.066c-1.035 1.403-1.986 2.862-2.937 4.293-.448.729-.923 1.458-1.37 2.216-.42.757-.868 1.487-1.26 2.244a64.02 64.02 0 00-2.293 4.6c-.671 1.572-1.314 3.143-1.874 4.742a34.807 34.807 0 00-1.398 4.909c-.336 1.656-.56 3.339-.588 5.022-.028 1.683.14 3.394.616 5.05.475 1.655 1.314 3.226 2.489 4.46l.392.393s.14.112.111.084l.448.365.335.252.14.084.56.365c.727.477 1.454.786 2.237 1.066 1.539.533 3.077.702 4.587.702h.56l.56-.029c.363-.028.726-.028 1.09-.084.364-.056.727-.084 1.09-.14.364-.056.7-.14 1.064-.196 1.398-.281 2.74-.618 4.027-1.066.336-.113.643-.197.951-.309.308-.112.615-.224.951-.337.615-.224 1.23-.505 1.818-.729 4.755-2.076 8.81-4.573 12.25-6.929a100.543 100.543 0 008.56-6.621c.14-.14.28-.252.447-.365l-.056-.056c-.196.141-.336.281-.475.393z" fill="#fff"/></svg>